<?xml version="1.0" encoding="utf-8"?>
<!-- Generator: Adobe Illustrator 23.0.6, SVG Export Plug-In . SVG Version: 6.00 Build 0)  -->
<svg version="1.1" id="Livello_1" xmlns="http://www.w3.org/2000/svg" xmlns:xlink="http://www.w3.org/1999/xlink" x="0px" y="0px"
	 viewBox="0 0 300 300" enable-background="new 0 0 300 300" xml:space="preserve">
<g id="closed">
	<g>
		
			<path fill="none" stroke="#000000" stroke-width="11.3386" stroke-linecap="square" stroke-linejoin="bevel" stroke-miterlimit="10" d="
			M240.72,152.4c-8.99,14.23-19.54,27.11-32.75,37.66c-12.17,9.72-25.66,16.73-41.09,19.67c-5.1,0.97-10.13,1.44-15.11,1.43
			c-4.97,0.01-10.34-0.45-15.44-1.43c-15.43-2.95-28.92-9.95-41.09-19.67c-13.21-10.55-23.76-23.43-32.75-37.66"/>
	</g>
	
		<line fill="none" stroke="#000000" stroke-width="8.5039" stroke-linecap="square" stroke-linejoin="round" stroke-miterlimit="10" x1="28.72" y1="193.07" x2="68.73" y2="161.28"/>
	
		<line fill="none" stroke="#000000" stroke-width="8.5039" stroke-linecap="square" stroke-linejoin="round" stroke-miterlimit="10" x1="275.84" y1="193.07" x2="235.82" y2="161.28"/>
	
		<line fill="none" stroke="#000000" stroke-width="8.5039" stroke-linecap="square" stroke-linejoin="round" stroke-miterlimit="10" x1="225.59" y1="242.59" x2="198.31" y2="199.37"/>
	
		<line fill="none" stroke="#000000" stroke-width="8.5039" stroke-linecap="square" stroke-linejoin="round" stroke-miterlimit="10" x1="77.6" y1="242.59" x2="104.87" y2="199.37"/>
	
		<line fill="none" stroke="#000000" stroke-width="8.5039" stroke-linecap="square" stroke-linejoin="round" stroke-miterlimit="10" x1="152.54" y1="261.59" x2="152.54" y2="210.48"/>
</g>
<g id="open">
	<g>
		
			<path fill="none" stroke="#000000" stroke-width="11.3386" stroke-linecap="square" stroke-linejoin="bevel" stroke-miterlimit="10" d="
			M62.49,137.66c8.99-14.23,19.54-27.11,32.75-37.66c12.17-9.72,25.66-16.73,41.09-19.67c5.1-0.97,10.13-1.44,15.11-1.43
			c4.97-0.01,10.34,0.45,15.44,1.43c15.43,2.95,28.92,9.95,41.09,19.67c13.21,10.55,23.76,23.43,32.75,37.66"/>
	</g>
	<path d="M180.49,131.78c6.03,10.63,4.61,29.65-8.93,40.29c-12.89,10.13-32.53,9.14-44.18-2.38c-11.66-11.53-12.9-31.11-2.91-44.15
		c10.57-13.8,29.68-15.34,40.55-9.25c-2.52,2.69-3.63,5.84-3.04,9.52c0.41,2.56,1.38,4.82,3.36,6.54
		C169.55,136,175.46,135.79,180.49,131.78z"/>
	
		<line fill="none" stroke="#000000" stroke-width="8.5039" stroke-linecap="square" stroke-linejoin="round" stroke-miterlimit="10" x1="273.5" y1="96" x2="233.49" y2="127.78"/>
	
		<line fill="none" stroke="#000000" stroke-width="8.5039" stroke-linecap="square" stroke-linejoin="round" stroke-miterlimit="10" x1="29.38" y1="96" x2="69.39" y2="127.78"/>
	
		<line fill="none" stroke="#000000" stroke-width="8.5039" stroke-linecap="square" stroke-linejoin="round" stroke-miterlimit="10" x1="77.63" y1="47.48" x2="104.9" y2="90.7"/>
	
		<line fill="none" stroke="#000000" stroke-width="8.5039" stroke-linecap="square" stroke-linejoin="round" stroke-miterlimit="10" x1="225.62" y1="47.48" x2="198.34" y2="90.7"/>
	
		<line fill="none" stroke="#000000" stroke-width="8.5039" stroke-linecap="square" stroke-linejoin="round" stroke-miterlimit="10" x1="150.68" y1="28.48" x2="150.68" y2="79.59"/>
</g>
</svg>
