<?xml version="1.0" encoding="utf-8"?>
<!-- Generator: Adobe Illustrator 23.0.6, SVG Export Plug-In . SVG Version: 6.00 Build 0)  -->
<svg version="1.1" id="Layer_1" xmlns="http://www.w3.org/2000/svg" xmlns:xlink="http://www.w3.org/1999/xlink" x="0px" y="0px"
	 viewBox="0 0 1154 202" enable-background="new 0 0 1154 202" xml:space="preserve">
<g>
	<path fill="#1A1A1A" d="M126.17,147.88h-47.7v-9.45h-9.45v-19.5h19.65v18.75h27.3v-36.75h-37.5v-9.3h-9.45v-38.4h9.45v-9.3h47.7
		v9.3h9.3v19.65h-19.5V54.13h-27.3v36.6h37.5v9.45h9.3v38.25h-9.3V147.88z"/>
	<path fill="#1A1A1A" d="M191.87,175.92h-28.95v-9.3h-9.45v-10.2h19.65v9.3h17.85v-27.3h-8.55v9.45h-19.5v-9.45h-9.45V62.68h19.65
		v75h8.55v-9.45h9.3V62.68h19.65v103.95h-18.75V175.92z"/>
	<path fill="#1A1A1A" d="M266.12,72.88h-8.55v9.3h-9.3v65.7h-19.65v-85.2h10.2v9.3h18v-9.3h19.5v9.3h9.45v75.9h-19.65V72.88z"/>
	<path fill="#1A1A1A" d="M342.46,147.88h-28.95v-9.45h-9.45V72.88h-9.3v-10.2h9.3V43.93h19.65v18.75h18.75v10.2h-18.75v64.8h8.55
		v-18.75h19.5v19.5h-9.3V147.88z"/>
	<path fill="#1A1A1A" d="M407.26,72.88h-8.55v9.3h-9.3v65.7h-19.65V34.48h19.65v37.5h8.55v-9.3h19.5v9.3h9.45v75.9h-19.65V72.88z"/>
	<path fill="#1A1A1A" d="M492.61,147.88h-38.25v-9.45h-9.45V71.98h9.45v-9.3h38.25v9.3h9.45v28.95h-9.45v9.45h-28.05v27.3h17.85
		v-18.75h19.65v19.5h-9.45V147.88z M464.56,72.88v27.3h17.85v-27.3H464.56z"/>
	<path fill="#1A1A1A" d="M558.76,147.88h-28.95v-9.45h-9.45V72.88h-9.3v-10.2h9.3V43.93h19.65v18.75h18.75v10.2h-18.75v64.8h8.55
		v-18.75h19.5v19.5h-9.3V147.88z"/>
	<path fill="#1A1A1A" d="M586.06,34.48h19.65v19.65h-19.65V34.48z M586.06,62.68h19.65v85.2h-19.65V62.68z"/>
	<path fill="#1A1A1A" d="M671.41,147.88h-38.25v-9.45h-9.45V71.98h9.45v-9.3h38.25v9.3h9.45v19.65h-19.65V72.88h-17.85v64.8h17.85
		v-18.75h19.65v19.5h-9.45V147.88z"/>
	<path fill="#1A1A1A" d="M698.86,35.38h91.5v47.85h-3.75V64.48c0-20.1-4.5-25.05-23.55-25.05h-8.85v104.7h15.3v3.75h-49.8v-3.75
		h15.3V39.43h-8.85c-19.05,0-23.55,4.95-23.55,25.05v18.75h-3.75V35.38z"/>
	<path fill="#1A1A1A" d="M808.3,62.38h31.01l24.62,82.65h9.35v2.85h-36.71v-2.85h12.88l-7.18-23.94h-32.6l-6.95,23.94h13.11v2.85
		h-25.76v-2.85h9.23l23.37-79.8H808.3V62.38z M841.36,118.01l-15.5-52.1l-15.28,52.1H841.36z"/>
	<path fill="#1A1A1A" d="M877.95,62.38h40.36v2.85h-14.02v79.57h16.64c16.42,0,20.18-3.76,20.18-19.04v-16.53h2.85v38.65h-66.12
		v-2.85h11.86v-79.8h-11.74V62.38z"/>
	<path fill="#1A1A1A" d="M951.94,62.38h67.37v32.95h-2.85V83.35c0-14.59-3.08-17.9-17.9-17.9h-20.18v37.51h17.56V85.75h2.85v39.1
		h-2.85v-18.81h-17.56v38.76h20.06c16.42,0,20.18-3.76,20.18-19.04v-10.83h2.85v32.95h-69.54v-2.85h11.86v-79.8h-11.86V62.38z"/>
	<path fill="#1A1A1A" d="M1085.43,62.38V93.5h-2.85v-1.37c0-18.92-9.69-28.96-19.84-28.96c-8.21,0-12.2,4.1-12.2,15.16
		c0,10.72,4.67,14.48,18.92,19.84c19.72,7.52,24.51,16.76,24.51,29.18c0,15.28-13.11,22.8-28.84,22.8
		c-12.54,0-23.37-7.75-28.27-20.41v18.13h-2.85v-37.96h2.85v3.65c0,20.52,13.11,33.52,27.93,33.52c10.72,0,14.48-5.36,14.48-14.25
		c0-11.63-4.79-16.87-18.47-22.46c-17.44-7.3-23.94-13.57-23.94-27.36c0-15.05,12.77-22.91,24.17-22.91
		c9.01,0,17.33,4.9,21.55,15.85V62.38H1085.43z"/>
</g>
</svg>
